<svg width="16" height="18" viewBox="0 0 16 18" fill="none" xmlns="http://www.w3.org/2000/svg">
<path d="M8.25098 0.25C3.19098 0.25 0.5 3.32358 0.5 6.67498C0.5 8.22927 1.41622 10.1675 2.88288 10.7822C3.10559 10.8774 3.22675 10.8369 3.27637 10.6411C3.32022 10.4923 3.51292 9.7759 3.60639 9.43792C3.63524 9.32963 3.62024 9.23556 3.52793 9.13384C3.04096 8.60007 2.6544 7.62768 2.6544 6.71545C2.6544 4.378 4.61493 2.10837 7.95096 2.10837C10.8358 2.10837 12.854 3.8847 12.854 6.42559C12.854 9.29682 11.2512 11.2832 9.16836 11.2832C8.01558 11.2832 7.15705 10.4256 7.42938 9.36463C7.75825 8.10129 8.4033 6.74279 8.4033 5.83166C8.4033 5.01459 7.91634 4.33862 6.92165 4.33862C5.7481 4.33862 4.7961 5.44008 4.7961 6.9189C4.7961 7.85847 5.1469 8.49287 5.1469 8.49287C5.1469 8.49287 3.98604 12.9381 3.77025 13.7683C3.40561 15.1738 3.81987 17.45 3.85564 17.6458C3.87757 17.7541 4.00565 17.788 4.0772 17.6994C4.19144 17.5572 5.59462 15.6594 5.98811 14.2878C6.1312 13.788 6.71856 11.7611 6.71856 11.7611C7.10512 12.4229 8.22098 12.9775 9.40953 12.9775C12.9452 12.9775 15.5 10.0318 15.5 6.37637C15.4873 2.87184 12.3232 0.25 8.25098 0.25Z" fill="white"/>
</svg>
