<svg width="24" height="16" viewBox="0 0 24 16" fill="none" xmlns="http://www.w3.org/2000/svg">
<path d="M22.2937 1.94545C21.6834 0.892727 21.0211 0.699091 19.6725 0.625455C18.3253 0.536818 14.9377 0.5 12.0028 0.5C9.06234 0.5 5.67328 0.536818 4.3275 0.624091C2.98172 0.699091 2.31797 0.891364 1.70203 1.94545C1.07344 2.99682 0.75 4.80773 0.75 7.99591C0.75 7.99864 0.75 8 0.75 8C0.75 8.00273 0.75 8.00409 0.75 8.00409V8.00682C0.75 11.1814 1.07344 13.0059 1.70203 14.0464C2.31797 15.0991 2.98031 15.29 4.32609 15.3786C5.67328 15.455 9.06234 15.5 12.0028 15.5C14.9377 15.5 18.3253 15.455 19.6739 15.38C21.0225 15.2914 21.6848 15.1005 22.2952 14.0477C22.9294 13.0073 23.25 11.1827 23.25 8.00818C23.25 8.00818 23.25 8.00409 23.25 8.00136C23.25 8.00136 23.25 7.99864 23.25 7.99727C23.25 4.80773 22.9294 2.99682 22.2937 1.94545ZM9.1875 12.0909V3.90909L16.2188 8L9.1875 12.0909Z" fill="white"/>
</svg>
