<svg width="115" height="115" viewBox="0 0 115 115" fill="none" xmlns="http://www.w3.org/2000/svg">
<circle cx="57.5" cy="57.5" r="54.5" fill="#D60400" stroke="#F7F7F8" stroke-width="6"/>
<mask id="mask0" mask-type="alpha" maskUnits="userSpaceOnUse" x="6" y="6" width="103" height="103">
<circle cx="57.5" cy="57.5" r="51.5" fill="#D60400"/>
</mask>
<g mask="url(#mask0)">
<path d="M103.536 69.436C94.8897 54.6975 77.5977 25.2205 68.9517 10.3824C61.1099 -2.9619 49.5484 -6.24818 39.897 0.423975C48.5431 -2.86231 55.681 0.52356 58.9987 7.09613C66.7399 21.9342 77.1956 50.1166 83.5293 69.6352C89.4608 87.9587 86.3443 100.208 68.2479 101.801H84.5346C105.446 101.801 113.991 87.162 103.536 69.436Z" fill="#E23347"/>
<path d="M31.0516 10.3817C22.4056 25.1202 5.11354 54.6967 -3.53248 69.4352C-11.3742 82.7796 -8.45871 94.3313 2.29855 99.211C-4.93998 93.4351 -5.44265 85.6675 -1.42125 79.5929C7.72745 65.5515 27.2313 42.4479 41.2057 27.311C54.3758 13.0705 66.641 9.58501 77.0967 24.2239L68.9533 10.2821C58.4977 -7.44393 41.5073 -7.44393 31.0516 10.3817Z" fill="#AD1923"/>
<path d="M15.3673 101.901C32.6594 101.901 67.2434 102 84.5355 102C100.219 102 108.865 93.8342 107.86 82.1828C106.352 91.245 99.8168 95.5271 92.3772 95.1288C75.4873 94.2325 45.5278 89.1537 25.2198 84.772C6.11808 80.5895 -3.03061 71.9256 4.61006 55.5938L-3.53329 69.5356C-13.9889 87.2616 -5.44346 101.801 15.3673 101.901Z" fill="#DB1915"/>
</g>
<path d="M37.3072 39.4L31.9432 49.372C31.4272 50.332 30.8032 51.058 30.0712 51.55C29.3512 52.042 28.5652 52.288 27.7132 52.288C27.0532 52.288 26.3692 52.144 25.6612 51.856L26.3632 49.642C26.8672 49.798 27.2872 49.876 27.6232 49.876C27.9832 49.876 28.3072 49.792 28.5952 49.624C28.8832 49.444 29.1472 49.168 29.3872 48.796L29.4952 48.652L24.5272 39.4H27.6412L30.9892 46.168L34.4452 39.4H37.3072ZM44.2316 46.96C44.8076 47.14 45.2516 47.416 45.5636 47.788C45.8876 48.16 46.0496 48.604 46.0496 49.12C46.0496 49.732 45.8396 50.272 45.4196 50.74C44.9996 51.196 44.4236 51.55 43.6916 51.802C42.9596 52.054 42.1316 52.18 41.2076 52.18C40.4516 52.18 39.7076 52.102 38.9756 51.946C38.2436 51.79 37.5656 51.556 36.9416 51.244L37.6976 49.282C38.7176 49.774 39.8456 50.02 41.0816 50.02C41.7416 50.02 42.2576 49.924 42.6296 49.732C43.0136 49.528 43.2056 49.246 43.2056 48.886C43.2056 48.574 43.0736 48.34 42.8096 48.184C42.5456 48.016 42.1616 47.932 41.6576 47.932H39.6776V46.186H41.4056C41.8976 46.186 42.2756 46.108 42.5396 45.952C42.8036 45.796 42.9356 45.568 42.9356 45.268C42.9356 44.956 42.7676 44.716 42.4316 44.548C42.1076 44.38 41.6396 44.296 41.0276 44.296C40.0916 44.296 39.0716 44.518 37.9676 44.962L37.2836 43.018C38.6276 42.43 39.9356 42.136 41.2076 42.136C42.0836 42.136 42.8636 42.244 43.5476 42.46C44.2436 42.676 44.7896 42.994 45.1856 43.414C45.5816 43.822 45.7796 44.302 45.7796 44.854C45.7796 45.31 45.6416 45.724 45.3656 46.096C45.0896 46.456 44.7116 46.744 44.2316 46.96ZM48.0922 42.316H50.8822V46.096H55.0942V42.316H57.9022V52H55.0942V48.382H50.8822V52H48.0922V42.316ZM64.3522 42.172C65.8522 42.172 67.0042 42.532 67.8082 43.252C68.6122 43.96 69.0142 45.034 69.0142 46.474V52H66.3862V50.794C65.8582 51.694 64.8742 52.144 63.4342 52.144C62.6902 52.144 62.0422 52.018 61.4902 51.766C60.9502 51.514 60.5362 51.166 60.2482 50.722C59.9602 50.278 59.8162 49.774 59.8162 49.21C59.8162 48.31 60.1522 47.602 60.8242 47.086C61.5082 46.57 62.5582 46.312 63.9742 46.312H66.2062C66.2062 45.7 66.0202 45.232 65.6482 44.908C65.2762 44.572 64.7182 44.404 63.9742 44.404C63.4582 44.404 62.9482 44.488 62.4442 44.656C61.9522 44.812 61.5322 45.028 61.1842 45.304L60.1762 43.342C60.7042 42.97 61.3342 42.682 62.0662 42.478C62.8102 42.274 63.5722 42.172 64.3522 42.172ZM64.1362 50.254C64.6162 50.254 65.0422 50.146 65.4142 49.93C65.7862 49.702 66.0502 49.372 66.2062 48.94V47.95H64.2802C63.1282 47.95 62.5522 48.328 62.5522 49.084C62.5522 49.444 62.6902 49.732 62.9662 49.948C63.2542 50.152 63.6442 50.254 64.1362 50.254ZM79.5895 44.62H76.3135V52H73.5235V44.62H70.2475V42.316H79.5895V44.62ZM86.3243 45.412C87.5843 45.424 88.5503 45.712 89.2223 46.276C89.8943 46.828 90.2303 47.614 90.2303 48.634C90.2303 49.702 89.8523 50.536 89.0963 51.136C88.3523 51.724 87.3023 52.018 85.9463 52.018L81.0863 52V42.316H83.8763V45.412H86.3243ZM85.6943 50.02C86.2343 50.032 86.6483 49.918 86.9363 49.678C87.2243 49.438 87.3683 49.078 87.3683 48.598C87.3683 48.13 87.2243 47.788 86.9363 47.572C86.6603 47.356 86.2463 47.242 85.6943 47.23L83.8763 47.212V50.02H85.6943ZM45.8605 73.696V78.124H43.2505V76H34.9525V66.316H37.7425V73.696H41.6485V66.316H44.4565V73.696H45.8605ZM57.0404 71.194C57.0404 71.23 57.0224 71.482 56.9864 71.95H49.6604C49.7924 72.55 50.1044 73.024 50.5964 73.372C51.0884 73.72 51.7004 73.894 52.4324 73.894C52.9364 73.894 53.3804 73.822 53.7644 73.678C54.1604 73.522 54.5264 73.282 54.8624 72.958L56.3564 74.578C55.4444 75.622 54.1124 76.144 52.3604 76.144C51.2684 76.144 50.3024 75.934 49.4624 75.514C48.6224 75.082 47.9744 74.488 47.5184 73.732C47.0624 72.976 46.8344 72.118 46.8344 71.158C46.8344 70.21 47.0564 69.358 47.5004 68.602C47.9564 67.834 48.5744 67.24 49.3544 66.82C50.1464 66.388 51.0284 66.172 52.0004 66.172C52.9484 66.172 53.8064 66.376 54.5744 66.784C55.3424 67.192 55.9424 67.78 56.3744 68.548C56.8184 69.304 57.0404 70.186 57.0404 71.194ZM52.0184 68.296C51.3824 68.296 50.8484 68.476 50.4164 68.836C49.9844 69.196 49.7204 69.688 49.6244 70.312H54.3944C54.2984 69.7 54.0344 69.214 53.6024 68.854C53.1704 68.482 52.6424 68.296 52.0184 68.296ZM59.1928 66.316H61.9828V70.096H66.1948V66.316H69.0028V76H66.1948V72.382H61.9828V76H59.1928V66.316ZM81.3928 66.316L77.0188 76.594C76.5748 77.71 76.0228 78.496 75.3628 78.952C74.7148 79.408 73.9288 79.636 73.0048 79.636C72.5008 79.636 72.0028 79.558 71.5108 79.402C71.0188 79.246 70.6168 79.03 70.3048 78.754L71.3308 76.756C71.5468 76.948 71.7928 77.098 72.0688 77.206C72.3568 77.314 72.6388 77.368 72.9148 77.368C73.2988 77.368 73.6108 77.272 73.8508 77.08C74.0908 76.9 74.3068 76.594 74.4988 76.162L74.5348 76.072L70.3408 66.316H73.2388L75.9568 72.886L78.6928 66.316H81.3928Z" fill="white"/>
</svg>
