<svg width="192" height="69" viewBox="0 0 192 69" fill="none" xmlns="http://www.w3.org/2000/svg">
<g clip-path="url(#clip0)">
<path d="M67.6925 45.4516C67.2301 45.4516 66.7677 45.175 66.5828 44.7601L57.2427 22.7719C57.104 22.4031 57.1502 22.0343 57.3814 21.7117C57.6126 21.389 57.9825 21.2046 58.3524 21.2046H62.4214C62.93 21.2046 63.3461 21.4812 63.5311 21.896L69.8194 36.601L76.2465 21.896C76.4315 21.4812 76.8476 21.2046 77.3562 21.2046H81.1015C81.5177 21.2046 81.8876 21.389 82.0725 21.7117C82.3037 22.0343 82.3499 22.4492 82.165 22.7719L72.5937 44.7601C72.4088 45.175 71.9926 45.4516 71.484 45.4516H67.6925Z" fill="#2E2E2E"/>
<path d="M86.7425 18.5771C86.0952 18.5771 85.5403 18.07 85.5403 17.4246V13.7369C85.5403 13.0915 86.049 12.5845 86.7425 12.5845H90.5341C91.1814 12.5845 91.7362 13.0915 91.7362 13.7369V17.4246C91.7362 18.07 91.2276 18.5771 90.5341 18.5771H86.7425ZM86.7425 45.4516C86.0952 45.4516 85.5403 44.9445 85.5403 44.2991V22.3109C85.5403 21.6656 86.049 21.1585 86.7425 21.1585H90.5341C91.1814 21.1585 91.7362 21.6656 91.7362 22.3109V44.2991C91.7362 44.9445 91.2276 45.4516 90.5341 45.4516H86.7425Z" fill="#2E2E2E"/>
<path d="M95.9902 45.4516C95.3428 45.4516 94.788 44.9445 94.788 44.2991V41.2567C94.788 40.9802 94.8804 40.7497 95.0654 40.5653L106.764 26.5518H96.3138C95.6665 26.5518 95.1116 26.0448 95.1116 25.3994V22.357C95.1116 21.7117 95.6202 21.2046 96.3138 21.2046H113.746C114.393 21.2046 114.948 21.7117 114.948 22.357V25.3533C114.948 25.6299 114.855 25.8604 114.67 26.0448L103.157 40.1043H114.208C114.855 40.1043 115.41 40.6114 115.41 41.2567V44.2991C115.41 44.9445 114.901 45.4516 114.208 45.4516H95.9902Z" fill="#2E2E2E"/>
<path d="M119.849 53.9794C119.202 53.9794 118.647 53.4724 118.647 52.827V49.7846C118.647 49.1393 119.155 48.6322 119.849 48.6322H122.022C122.947 48.6322 123.733 48.54 124.38 48.3095C124.981 48.1251 125.444 47.8025 125.86 47.3415C126.091 47.0649 126.692 46.2352 127.802 43.7459L127.987 43.3311L118.369 22.7718C118.184 22.4031 118.231 21.9882 118.462 21.6655C118.693 21.3428 119.063 21.1584 119.479 21.1584H123.687C124.149 21.1584 124.565 21.435 124.75 21.8499L131.27 35.8173L137.373 21.896C137.558 21.4811 137.974 21.2045 138.483 21.2045H142.321C142.737 21.2045 143.107 21.3889 143.292 21.7116C143.523 22.0343 143.569 22.4492 143.384 22.7718L133.72 44.7601C132.379 47.8947 131.224 49.9229 130.253 50.9831C129.282 52.0895 128.172 52.8731 127.016 53.3341C125.86 53.7951 124.473 54.0255 122.67 54.0255H119.849V53.9794Z" fill="#2E2E2E"/>
<path d="M155.498 25.9064C153.834 25.9064 152.493 26.5056 151.476 27.7963C150.412 29.1331 149.857 31.0231 149.857 33.2819C149.857 35.5867 150.412 37.4306 151.476 38.8135C152.493 40.1042 153.834 40.7035 155.498 40.7035C157.163 40.7035 158.504 40.0581 159.521 38.8135C160.585 37.4767 161.14 35.5867 161.14 33.2819C161.14 30.977 160.585 29.1331 159.521 27.7963C158.504 26.5056 157.209 25.9064 155.498 25.9064ZM155.498 46.0507C152.216 46.0507 149.349 44.9444 147.037 42.8239C144.679 40.6574 143.523 37.4767 143.523 33.328C143.523 29.1792 144.725 25.9986 147.037 23.832C149.349 21.6655 152.216 20.6052 155.498 20.6052C158.781 20.6052 161.648 21.7115 163.96 23.832C166.318 25.9986 167.474 29.1792 167.474 33.328C167.474 37.4767 166.272 40.6574 163.96 42.8239C161.648 44.9905 158.781 46.0507 155.498 46.0507Z" fill="#2E2E2E"/>
<path d="M186.987 45.4515C186.339 45.4515 185.784 44.9444 185.784 44.299V31.899C185.784 29.5941 185.599 28.5339 185.414 28.0729C185.23 27.5198 184.86 27.1049 184.351 26.7822C183.75 26.4134 183.103 26.229 182.409 26.229C181.53 26.229 180.698 26.4595 179.866 27.0127C179.034 27.5198 178.34 28.2573 177.831 29.2253C177.323 30.1934 177.045 31.6224 177.045 33.5585V44.3451C177.045 44.9905 176.491 45.4976 175.843 45.4976H172.052C171.404 45.4976 170.849 44.9905 170.849 44.3451V22.3108C170.849 21.6655 171.404 21.1584 172.052 21.1584H175.843C176.491 21.1584 177.045 21.6655 177.045 22.3108V22.9101C177.184 22.7718 177.323 22.6796 177.462 22.5874C178.294 21.942 179.219 21.435 180.143 21.1123C181.114 20.7896 182.178 20.6052 183.334 20.6052C184.952 20.6052 186.432 20.9279 187.726 21.5733C189.067 22.2186 190.131 23.2327 190.871 24.5235C191.61 25.8142 191.98 27.7041 191.98 30.3317V44.3451C191.98 44.9905 191.472 45.4976 190.778 45.4976H186.987V45.4515Z" fill="#2E2E2E"/>
<path d="M0.369904 63.7981C0.369904 64.1208 0.416142 64.3973 0.508618 64.6739C0.601094 64.9505 0.739808 65.2271 0.878522 65.4115C1.06347 65.642 1.24843 65.8263 1.47962 65.9185C1.71081 66.0568 2.03447 66.1029 2.3119 66.1029C2.63557 66.1029 2.913 66.0568 3.14419 65.9185C3.37538 65.7802 3.60657 65.5959 3.79152 65.4115C3.97647 65.181 4.06895 64.9505 4.16142 64.6739C4.2539 64.3973 4.30014 64.0747 4.30014 63.7981C4.30014 63.4754 4.2539 63.1988 4.16142 62.9222C4.06895 62.6457 3.93023 62.3691 3.79152 62.1847C3.60657 61.9542 3.42161 61.7698 3.14419 61.6776C2.913 61.5393 2.58933 61.4932 2.3119 61.4932C1.98823 61.4932 1.71081 61.5393 1.47962 61.6776C1.24843 61.8159 1.01724 62.0003 0.878522 62.1847C0.69357 62.4152 0.601094 62.6457 0.508618 62.9222C0.416142 63.1988 0.369904 63.4754 0.369904 63.7981ZM0 63.7981C0 63.4293 0.046238 63.1066 0.138714 62.784C0.23119 62.4613 0.416142 62.1847 0.601094 61.9081C0.786046 61.6776 1.06347 61.4471 1.3409 61.3089C1.61833 61.1706 1.98823 61.0784 2.35814 61.0784C2.72804 61.0784 3.09795 61.1706 3.37538 61.3089C3.6528 61.4471 3.93023 61.6315 4.11518 61.9081C4.30014 62.1386 4.48509 62.4613 4.57756 62.784C4.67004 63.1066 4.71628 63.4293 4.71628 63.7981C4.71628 64.1669 4.67004 64.5356 4.57756 64.8583C4.48509 65.181 4.30014 65.4576 4.11518 65.7342C3.93023 65.9646 3.6528 66.1951 3.37538 66.3334C3.09795 66.4717 2.72804 66.5639 2.35814 66.5639C1.98823 66.5639 1.61833 66.4717 1.3409 66.3334C1.06347 66.1951 0.786046 66.0107 0.601094 65.7342C0.416142 65.5037 0.23119 65.2271 0.138714 64.8583C0.046238 64.4895 0 64.1669 0 63.7981Z" fill="#AD1923"/>
<path d="M14.1488 66.3796H13.7789V65.2733C13.7327 65.4577 13.594 65.6421 13.5015 65.7804C13.3628 65.9187 13.2241 66.057 13.0854 66.1492C12.9004 66.2413 12.7617 66.3335 12.5305 66.3796C12.3456 66.4257 12.1144 66.4718 11.9294 66.4718C11.6057 66.4718 11.3746 66.4257 11.1434 66.3796C10.9122 66.2874 10.7735 66.1953 10.6348 66.1031C10.496 65.9648 10.4036 65.8265 10.3111 65.6882C10.2186 65.5499 10.1724 65.3655 10.1261 65.2272C10.0799 65.0889 10.0799 64.9045 10.0799 64.7663C10.0799 64.628 10.0799 64.4897 10.0799 64.3975V61.2168H10.4498V64.4897C10.4498 64.628 10.4498 64.7663 10.496 64.9967C10.496 65.1811 10.5885 65.3655 10.681 65.5499C10.7735 65.7343 10.9122 65.8726 11.0971 66.0109C11.2821 66.1492 11.5595 66.1953 11.9294 66.1953C12.2068 66.1953 12.4843 66.1492 12.7155 66.0109C12.9467 65.9187 13.1316 65.7804 13.3166 65.5499C13.5015 65.3655 13.594 65.135 13.6865 64.8584C13.7789 64.5819 13.8252 64.3053 13.8252 63.9826V61.2168H14.1951V66.3796H14.1488Z" fill="#AD1923"/>
<path d="M21.9168 61.5394H20.8071V65.1349C20.8071 65.3193 20.8071 65.5037 20.8996 65.642C20.9458 65.7803 21.0383 65.8725 21.1308 65.9186C21.2233 65.9647 21.362 66.0108 21.5007 66.0569C21.6394 66.0569 21.7781 66.0569 21.9631 66.0569V66.3796C21.7781 66.3796 21.5932 66.3796 21.4082 66.3796C21.2233 66.3796 21.0383 66.3335 20.8996 66.2413C20.7609 66.1491 20.6222 66.0108 20.5759 65.8725C20.4835 65.6881 20.4372 65.4576 20.4834 65.181V61.5855H19.5125V61.2628H20.4834V59.6494H20.8071V61.2628H21.9168V61.5394Z" fill="#AD1923"/>
<path d="M29.5461 66.1489C29.8697 66.1489 30.1472 66.1028 30.3783 65.9645C30.6095 65.8262 30.7945 65.6418 30.9794 65.4114C31.1182 65.1809 31.2569 64.9504 31.3494 64.6738C31.4418 64.3972 31.4418 64.1206 31.4418 63.798C31.4418 63.5214 31.3956 63.1987 31.3494 62.9221C31.2569 62.6455 31.1644 62.369 30.9794 62.1385C30.8407 61.908 30.6095 61.7236 30.3783 61.5853C30.1472 61.447 29.8235 61.4009 29.4998 61.4009C29.1762 61.4009 28.8525 61.447 28.6213 61.5853C28.3901 61.7236 28.1589 61.908 28.0202 62.0924C27.8815 62.3229 27.7428 62.5533 27.6965 62.876C27.6503 63.1526 27.6041 63.4753 27.6041 63.7519C27.6041 64.0745 27.6503 64.3511 27.6965 64.6277C27.789 64.9043 27.8815 65.1809 28.0665 65.3653C28.2052 65.5957 28.4364 65.7801 28.6675 65.8723C28.8987 66.1028 29.2224 66.1489 29.5461 66.1489ZM31.4418 65.2731C31.2106 65.6879 30.9332 65.9645 30.6095 66.195C30.2859 66.3794 29.916 66.5177 29.4536 66.5177C29.0837 66.5177 28.7138 66.4255 28.4364 66.2872C28.1589 66.1489 27.9277 65.9645 27.7428 65.6879C27.5578 65.4575 27.4191 65.1348 27.3266 64.8121C27.2342 64.4894 27.1879 64.1667 27.1879 63.798C27.1879 63.4292 27.2342 63.0604 27.3266 62.7377C27.4191 62.4151 27.5578 62.1385 27.7428 61.8619C27.9277 61.6314 28.1589 61.447 28.4826 61.3087C28.76 61.1704 29.1299 61.0782 29.4998 61.0782C29.6848 61.0782 29.916 61.1243 30.1009 61.1704C30.2859 61.2165 30.4708 61.3087 30.6558 61.4009C30.8407 61.4931 30.9794 61.6314 31.1182 61.8158C31.2569 61.9541 31.3493 62.1385 31.3956 62.369V59.2344H31.7655V66.3794H31.4418V65.2731Z" fill="#AD1923"/>
<path d="M37.5453 63.7981C37.5453 64.1208 37.5915 64.3973 37.684 64.6739C37.7765 64.9505 37.9152 65.2271 38.0539 65.4115C38.2389 65.642 38.4238 65.8263 38.655 65.9185C38.8862 66.0568 39.1636 66.1029 39.4873 66.1029C39.811 66.1029 40.0884 66.0568 40.3658 65.9185C40.597 65.7802 40.8282 65.5959 40.9669 65.4115C41.1519 65.181 41.2443 64.9505 41.3368 64.6739C41.4293 64.3973 41.4755 64.0747 41.4755 63.7981C41.4755 63.4754 41.4293 63.1988 41.3368 62.9222C41.2443 62.6457 41.1056 62.3691 40.9669 62.1847C40.782 61.9542 40.597 61.7698 40.3658 61.6776C40.1346 61.5393 39.811 61.4932 39.4873 61.4932C39.1636 61.4932 38.8862 61.5393 38.655 61.6776C38.4238 61.8159 38.1926 62.0003 38.0539 62.1847C37.869 62.4152 37.7765 62.6457 37.684 62.9222C37.5915 63.1988 37.5453 63.4754 37.5453 63.7981ZM37.1292 63.7981C37.1292 63.4293 37.1754 63.1066 37.2679 62.784C37.3603 62.4613 37.5453 62.1847 37.7302 61.9081C37.9152 61.6776 38.1926 61.4471 38.4701 61.3089C38.7475 61.1706 39.1174 61.0784 39.4873 61.0784C39.8572 61.0784 40.2271 61.1706 40.5045 61.3089C40.782 61.4471 41.0594 61.6315 41.2443 61.9081C41.4293 62.1386 41.6142 62.4613 41.7067 62.784C41.7992 63.1066 41.8454 63.4293 41.8454 63.7981C41.8454 64.1669 41.7992 64.5356 41.7067 64.8583C41.6142 65.181 41.4293 65.4576 41.2443 65.7342C41.0594 65.9646 40.782 66.1951 40.5045 66.3334C40.2271 66.4717 39.8572 66.5639 39.4873 66.5639C39.1174 66.5639 38.7475 66.4717 38.4701 66.3334C38.1926 66.1951 37.9152 66.0107 37.7302 65.7342C37.5453 65.5037 37.3603 65.2271 37.2679 64.8583C37.2216 64.4895 37.1292 64.1669 37.1292 63.7981Z" fill="#AD1923"/>
<path d="M47.579 63.7981C47.579 64.1208 47.6252 64.3973 47.7177 64.6739C47.8101 64.9505 47.9489 65.2271 48.0876 65.4115C48.2725 65.642 48.4575 65.8263 48.7349 65.9185C48.9661 66.0568 49.2435 66.1029 49.5672 66.1029C49.8908 66.1029 50.1683 66.0568 50.3995 65.9185C50.6307 65.7802 50.8618 65.5959 51.0006 65.4115C51.1855 65.181 51.278 64.9505 51.3705 64.6739C51.4629 64.3973 51.5092 64.0747 51.5092 63.7981C51.5092 63.4754 51.4629 63.1988 51.3705 62.9222C51.278 62.6457 51.1393 62.3691 51.0006 62.1847C50.8156 61.9542 50.6307 61.7698 50.3995 61.6776C50.1683 61.5393 49.8446 61.4932 49.5672 61.4932C49.2435 61.4932 48.9661 61.5393 48.7349 61.6776C48.5037 61.8159 48.2725 62.0003 48.0876 62.1847C47.9026 62.4152 47.8101 62.6457 47.7177 62.9222C47.6252 63.1988 47.579 63.4754 47.579 63.7981ZM47.209 63.7981C47.209 63.4293 47.2553 63.1066 47.3478 62.784C47.4402 62.4613 47.6252 62.1847 47.8101 61.9081C47.9951 61.6776 48.2725 61.4471 48.5499 61.3089C48.8274 61.1706 49.1973 61.0784 49.5672 61.0784C49.9371 61.0784 50.307 61.1706 50.5844 61.3089C50.8618 61.4471 51.1393 61.6315 51.3242 61.9081C51.5092 62.1386 51.6941 62.4613 51.7866 62.784C51.8791 63.1066 51.9253 63.4293 51.9253 63.7981C51.9253 64.1669 51.8791 64.5356 51.7866 64.8583C51.6941 65.181 51.5092 65.4576 51.3242 65.7342C51.1393 65.9646 50.8618 66.1951 50.5844 66.3334C50.307 66.4717 49.9371 66.5639 49.5672 66.5639C49.1973 66.5639 48.8274 66.4717 48.5499 66.3334C48.2725 66.1951 47.9951 66.0107 47.8101 65.7342C47.6252 65.5037 47.4402 65.2271 47.3478 64.8583C47.2553 64.4895 47.209 64.1669 47.209 63.7981Z" fill="#AD1923"/>
<path d="M57.6588 62.3692C57.7513 62.1848 57.8438 62.0465 57.9362 61.9082C58.075 61.77 58.2137 61.6317 58.3986 61.5395C58.5836 61.4473 58.7685 61.3551 58.9997 61.309C59.2309 61.2629 59.4621 61.2168 59.6933 61.2168V61.5856C59.5083 61.5395 59.2771 61.5856 58.9997 61.6317C58.7223 61.6778 58.4911 61.8621 58.2599 62.0926C58.1674 62.1848 58.075 62.277 58.0287 62.3692C57.9362 62.4614 57.89 62.5536 57.8438 62.6919C57.7975 62.7841 57.7513 62.9224 57.7513 63.0607C57.705 63.199 57.705 63.3833 57.705 63.5677V66.3796H57.3351V61.2168H57.705V62.3692H57.6588Z" fill="#AD1923"/>
<path d="M65.7967 59.1885H64.9644V66.3335H65.7967V59.1885Z" fill="#AD1923"/>
<path d="M71.9926 66.3796H71.1603V61.2167H71.9926V66.3796ZM71.1141 59.1885H71.9464V60.2487H71.1141V59.1885Z" fill="#AD1923"/>
<path d="M79.2057 66.3796L77.2637 61.1707H78.2347L79.7143 65.5038L81.1477 61.1707H82.0263L80.1305 66.3796H79.2057Z" fill="#AD1923"/>
<path d="M88.1759 66.3796H87.3436V61.2167H88.1759V66.3796ZM87.3436 59.1885H88.1759V60.2487H87.3436V59.1885Z" fill="#AD1923"/>
<path d="M94.3256 61.1706V62.0003C94.6955 61.355 95.2503 61.0784 96.0364 61.0784C96.36 61.0784 96.6837 61.1245 96.8686 61.2167C97.0998 61.3089 97.2848 61.4471 97.4235 61.5854C97.5622 61.7698 97.6547 61.9542 97.7009 62.1847C97.7472 62.4152 97.7934 62.6918 97.7934 62.9683V66.3795H96.9149V62.8761C96.9149 62.5535 96.8224 62.323 96.6375 62.0925C96.4525 61.9081 96.1751 61.8159 95.8514 61.8159C95.574 61.8159 95.3428 61.862 95.1578 61.9542C94.9729 62.0464 94.7879 62.1386 94.6955 62.2769C94.5568 62.4152 94.4643 62.5996 94.418 62.784C94.3718 62.9683 94.3256 63.1988 94.3256 63.4293V66.3334H93.4933V61.1706H94.3256Z" fill="#AD1923"/>
<path d="M106.209 65.5037C106.394 65.3654 106.579 65.2271 106.671 65.0427C106.81 64.8583 106.902 64.6278 106.949 64.3973C106.995 64.1669 107.041 63.9364 107.041 63.6598C107.041 63.4293 106.995 63.1988 106.949 62.9683C106.902 62.7379 106.81 62.5535 106.671 62.3691C106.532 62.1847 106.394 62.0464 106.209 61.9542C106.024 61.862 105.793 61.8159 105.515 61.8159C105.238 61.8159 105.007 61.862 104.822 61.9542C104.637 62.0464 104.452 62.1847 104.359 62.3691C104.22 62.5535 104.128 62.7379 104.082 62.9683C104.036 63.1988 103.989 63.4293 103.989 63.6598C103.989 63.8903 104.036 64.1208 104.082 64.3512C104.128 64.5817 104.22 64.8122 104.313 64.9966C104.405 65.181 104.59 65.3193 104.775 65.4576C104.96 65.5959 105.191 65.6419 105.469 65.6419C105.746 65.688 106.024 65.5959 106.209 65.5037ZM107.318 67.8085C106.949 68.2234 106.301 68.4539 105.469 68.4539C105.238 68.4539 104.96 68.4078 104.729 68.3617C104.498 68.3156 104.267 68.2234 104.036 68.0851C103.851 67.9468 103.666 67.8085 103.527 67.6241C103.388 67.4397 103.342 67.2092 103.296 66.9327H104.128C104.128 67.071 104.174 67.2092 104.267 67.3475C104.359 67.4397 104.452 67.5319 104.59 67.6241C104.729 67.6702 104.868 67.7624 105.007 67.7624C105.145 67.8085 105.33 67.8085 105.469 67.8085C105.746 67.8085 105.978 67.7624 106.209 67.6702C106.394 67.578 106.579 67.4397 106.671 67.2553C106.81 67.071 106.902 66.8866 106.949 66.6561C106.995 66.4256 107.041 66.149 107.041 65.8724V65.4576C106.902 65.7802 106.671 66.0107 106.394 66.149C106.116 66.2873 105.793 66.3795 105.423 66.3795C105.053 66.3795 104.683 66.2873 104.405 66.149C104.128 66.0107 103.851 65.8263 103.666 65.5959C103.481 65.3654 103.342 65.0888 103.249 64.7661C103.157 64.4434 103.111 64.1208 103.111 63.752C103.111 63.4293 103.157 63.1527 103.249 62.83C103.342 62.5074 103.481 62.2308 103.666 61.9542C103.851 61.6776 104.082 61.4932 104.405 61.3089C104.729 61.1245 105.099 61.0784 105.561 61.0784C105.885 61.0784 106.209 61.1706 106.486 61.3089C106.764 61.4471 106.995 61.6776 107.133 61.9542V61.2167H107.92V65.9185C107.873 66.7483 107.688 67.3936 107.318 67.8085Z" fill="#AD1923"/>
<path d="M114.624 65.0888C114.67 65.1809 114.763 65.2731 114.855 65.3653C114.948 65.4114 115.086 65.5036 115.225 65.5036C115.364 65.5497 115.503 65.5497 115.641 65.5497C115.734 65.5497 115.826 65.5497 115.965 65.5036C116.057 65.5036 116.196 65.4575 116.289 65.4114C116.381 65.3653 116.474 65.2731 116.52 65.227C116.566 65.1349 116.612 65.0427 116.612 64.9044C116.612 64.6739 116.474 64.5356 116.196 64.4434C115.919 64.3512 115.503 64.2129 114.994 64.1207C114.763 64.0746 114.578 64.0285 114.393 63.9363C114.208 63.8902 114.023 63.798 113.884 63.7058C113.746 63.6137 113.607 63.4754 113.514 63.291C113.422 63.1527 113.376 62.9222 113.376 62.7378C113.376 62.4151 113.422 62.1386 113.561 61.9081C113.699 61.6776 113.884 61.5393 114.069 61.401C114.3 61.2627 114.532 61.1705 114.809 61.1244C115.086 61.0783 115.364 61.0322 115.641 61.0322C115.919 61.0322 116.196 61.0783 116.474 61.1244C116.751 61.1705 116.982 61.2627 117.167 61.401C117.352 61.5393 117.537 61.6776 117.676 61.9081C117.814 62.1386 117.907 62.369 117.907 62.6917H116.52C116.52 62.4151 116.381 62.2308 116.196 62.1386C116.011 62.0464 115.78 62.0003 115.549 62.0003C115.456 62.0003 115.364 62.0003 115.271 62.0003C115.179 62.0003 115.086 62.0464 114.994 62.0464C114.901 62.0925 114.855 62.1386 114.809 62.1846C114.763 62.2307 114.717 62.3229 114.717 62.4612C114.717 62.5995 114.763 62.6917 114.855 62.7839C114.948 62.8761 115.086 62.9222 115.225 62.9683C115.364 63.0144 115.549 63.0605 115.734 63.1066C115.919 63.1527 116.104 63.1988 116.335 63.2449C116.566 63.291 116.751 63.3371 116.936 63.4293C117.121 63.4754 117.306 63.5676 117.445 63.7058C117.583 63.798 117.722 63.9363 117.814 64.1207C117.907 64.3051 117.953 64.4895 117.953 64.72C117.953 65.0427 117.907 65.3653 117.768 65.5958C117.63 65.8263 117.445 66.0107 117.213 66.149C116.982 66.2873 116.751 66.3795 116.474 66.4256C116.196 66.4717 115.919 66.5178 115.595 66.5178C115.271 66.5178 114.994 66.4717 114.717 66.4256C114.439 66.3795 114.162 66.2873 113.93 66.149C113.699 66.0107 113.514 65.8263 113.376 65.5958C113.237 65.3653 113.144 65.0888 113.144 64.72H114.485C114.532 64.8122 114.578 64.9505 114.624 65.0888Z" fill="#AD1923"/>
<path d="M124.796 64.3973C124.843 64.5817 124.889 64.7661 124.981 64.9505C125.074 65.0888 125.213 65.227 125.351 65.3192C125.49 65.4114 125.721 65.4575 125.952 65.4575C126.184 65.4575 126.415 65.4114 126.553 65.3192C126.738 65.227 126.831 65.0888 126.923 64.9505C127.016 64.8122 127.108 64.6278 127.108 64.3973C127.155 64.2129 127.155 63.9824 127.155 63.798C127.155 63.6137 127.155 63.3832 127.108 63.1988C127.062 63.0144 127.016 62.83 126.923 62.6917C126.831 62.5534 126.692 62.4151 126.553 62.3229C126.369 62.2307 126.184 62.1846 125.952 62.1846C125.721 62.1846 125.49 62.2307 125.351 62.3229C125.166 62.4151 125.074 62.5534 124.981 62.6917C124.889 62.83 124.796 63.0144 124.796 63.1988C124.75 63.3832 124.75 63.6137 124.75 63.798C124.75 63.9824 124.75 64.1668 124.796 64.3973ZM123.502 62.6456C123.64 62.3229 123.825 62.0003 124.057 61.7698C124.288 61.5393 124.565 61.3549 124.889 61.2166C125.213 61.0783 125.582 61.0322 125.999 61.0322C126.415 61.0322 126.785 61.0783 127.108 61.2166C127.432 61.3549 127.709 61.5393 127.941 61.7698C128.172 62.0003 128.357 62.2768 128.495 62.6456C128.634 62.9683 128.68 63.3832 128.68 63.7519C128.68 64.1668 128.634 64.5356 128.495 64.8583C128.357 65.181 128.172 65.4575 127.941 65.7341C127.709 65.9646 127.432 66.149 127.108 66.2873C126.785 66.4256 126.415 66.4717 125.999 66.4717C125.582 66.4717 125.213 66.4256 124.889 66.2873C124.565 66.149 124.288 65.9646 124.057 65.7341C123.825 65.5036 123.64 65.227 123.502 64.8583C123.363 64.5356 123.317 64.1668 123.317 63.7519C123.317 63.3832 123.363 62.9683 123.502 62.6456Z" fill="#AD1923"/>
<path d="M135.431 59.1885H133.998V66.3335H135.431V59.1885Z" fill="#AD1923"/>
<path d="M144.263 66.3796V65.6421H144.216C144.031 65.9648 143.8 66.1492 143.523 66.2874C143.245 66.4257 142.922 66.4718 142.644 66.4718C142.274 66.4718 141.951 66.4257 141.72 66.3335C141.488 66.2413 141.303 66.1031 141.118 65.9187C140.98 65.7343 140.887 65.5038 140.841 65.2733C140.795 64.9967 140.749 64.7202 140.749 64.3975V61.2168H142.182V64.167C142.182 64.5819 142.228 64.9045 142.367 65.135C142.506 65.3655 142.737 65.4577 143.06 65.4577C143.43 65.4577 143.708 65.3194 143.893 65.135C144.078 64.9045 144.17 64.5358 144.17 63.9826V61.2629H145.604V66.3796H144.263Z" fill="#AD1923"/>
<path d="M154.25 61.1706V62.1386H153.187V64.72C153.187 64.9505 153.233 65.1349 153.325 65.181C153.418 65.2732 153.556 65.3193 153.788 65.3193C153.88 65.3193 153.926 65.3193 154.019 65.3193C154.111 65.3193 154.158 65.3193 154.204 65.2732V66.3795C154.065 66.3795 153.973 66.4256 153.788 66.4256C153.649 66.4256 153.51 66.4256 153.372 66.4256C153.14 66.4256 152.955 66.4256 152.724 66.3795C152.539 66.3334 152.354 66.2873 152.216 66.1951C152.077 66.1029 151.938 65.9646 151.846 65.8264C151.753 65.642 151.707 65.4576 151.707 65.181V62.1386H150.828V61.1706H151.707V59.6033H153.14V61.1706H154.25Z" fill="#AD1923"/>
<path d="M161.001 66.3796H159.567V61.2167H161.001V66.3796ZM159.567 59.1885H161.001V60.3409H159.567V59.1885Z" fill="#AD1923"/>
<path d="M167.798 64.3973C167.844 64.5817 167.89 64.7661 167.983 64.9505C168.075 65.0888 168.214 65.227 168.353 65.3192C168.538 65.4114 168.723 65.4575 168.954 65.4575C169.185 65.4575 169.416 65.4114 169.555 65.3192C169.74 65.227 169.832 65.0888 169.925 64.9505C170.017 64.8122 170.11 64.6278 170.11 64.3973C170.156 64.2129 170.156 63.9824 170.156 63.798C170.156 63.6137 170.156 63.3832 170.11 63.1988C170.063 63.0144 170.017 62.83 169.925 62.6917C169.832 62.5534 169.694 62.4151 169.555 62.3229C169.37 62.2307 169.185 62.1846 168.954 62.1846C168.723 62.1846 168.491 62.2307 168.353 62.3229C168.214 62.4151 168.075 62.5534 167.983 62.6917C167.89 62.83 167.798 63.0144 167.798 63.1988C167.752 63.3832 167.752 63.6137 167.752 63.798C167.705 63.9824 167.752 64.1668 167.798 64.3973ZM166.503 62.6456C166.642 62.3229 166.827 62.0003 167.058 61.7698C167.289 61.5393 167.567 61.3549 167.89 61.2166C168.214 61.0783 168.584 61.0322 169 61.0322C169.416 61.0322 169.786 61.0783 170.11 61.2166C170.433 61.3549 170.711 61.5393 170.942 61.7698C171.173 62.0003 171.358 62.2768 171.497 62.6456C171.636 62.9683 171.682 63.3832 171.682 63.7519C171.682 64.1668 171.636 64.5356 171.497 64.8583C171.358 65.181 171.173 65.4575 170.942 65.7341C170.711 65.9646 170.433 66.149 170.11 66.2873C169.786 66.4256 169.416 66.4717 169 66.4717C168.584 66.4717 168.214 66.4256 167.89 66.2873C167.567 66.149 167.289 65.9646 167.058 65.7341C166.827 65.5036 166.642 65.227 166.503 64.8583C166.364 64.5356 166.318 64.1668 166.318 63.7519C166.318 63.3832 166.364 62.9683 166.503 62.6456Z" fill="#AD1923"/>
<path d="M178.34 61.1706V61.9081H178.386C178.571 61.5854 178.802 61.401 179.08 61.2628C179.357 61.1245 179.681 61.0784 179.958 61.0784C180.328 61.0784 180.652 61.1245 180.883 61.2167C181.114 61.3089 181.299 61.4471 181.484 61.6315C181.623 61.8159 181.715 62.0464 181.762 62.323C181.808 62.5996 181.854 62.8761 181.854 63.1988V66.3795H180.421V63.4754C180.421 63.0605 180.375 62.7379 180.236 62.5074C180.097 62.2769 179.866 62.1847 179.542 62.1847C179.172 62.1847 178.849 62.323 178.71 62.5535C178.525 62.7839 178.433 63.1527 178.433 63.7059V66.4256H176.999V61.2628H178.34V61.1706Z" fill="#AD1923"/>
<path d="M188.605 65.0888C188.651 65.1809 188.744 65.2731 188.836 65.3653C188.929 65.4114 189.067 65.5036 189.16 65.5036C189.298 65.5497 189.437 65.5497 189.576 65.5497C189.668 65.5497 189.761 65.5497 189.9 65.5036C189.992 65.5036 190.131 65.4575 190.223 65.4114C190.316 65.3653 190.408 65.2731 190.454 65.227C190.501 65.1349 190.547 65.0427 190.547 64.9044C190.547 64.6739 190.408 64.5356 190.131 64.4434C189.853 64.3512 189.437 64.2129 188.929 64.1207C188.697 64.0746 188.512 64.0285 188.327 63.9363C188.142 63.8902 187.958 63.798 187.819 63.7058C187.68 63.6137 187.541 63.4754 187.449 63.291C187.356 63.1527 187.31 62.9222 187.31 62.7378C187.31 62.4151 187.356 62.1386 187.495 61.9081C187.634 61.6776 187.819 61.5393 188.004 61.401C188.235 61.2627 188.466 61.1705 188.744 61.1244C189.021 61.0783 189.298 61.0322 189.576 61.0322C189.853 61.0322 190.131 61.0783 190.408 61.1244C190.686 61.1705 190.917 61.2627 191.102 61.401C191.287 61.5393 191.472 61.6776 191.61 61.9081C191.749 62.1386 191.842 62.369 191.842 62.6917H190.501C190.501 62.4151 190.362 62.2308 190.177 62.1386C189.992 62.0464 189.761 62.0003 189.53 62.0003C189.437 62.0003 189.345 62.0003 189.252 62.0003C189.16 62.0003 189.067 62.0464 188.975 62.0464C188.882 62.0925 188.836 62.1386 188.79 62.1846C188.744 62.2307 188.697 62.3229 188.697 62.4612C188.697 62.5995 188.744 62.6917 188.836 62.7839C188.929 62.8761 189.067 62.9222 189.206 62.9683C189.345 63.0144 189.53 63.0605 189.715 63.1066C189.9 63.1527 190.084 63.1988 190.316 63.2449C190.501 63.291 190.732 63.3371 190.917 63.4293C191.102 63.4754 191.287 63.5676 191.425 63.7058C191.564 63.798 191.703 63.9363 191.795 64.1207C191.888 64.3051 191.934 64.4895 191.934 64.72C191.934 65.0427 191.888 65.3653 191.749 65.5958C191.61 65.8263 191.425 66.0107 191.194 66.149C190.963 66.2873 190.732 66.3795 190.454 66.4256C190.177 66.4717 189.9 66.5178 189.576 66.5178C189.252 66.5178 188.975 66.4717 188.697 66.4256C188.42 66.3795 188.142 66.2873 187.911 66.149C187.68 66.0107 187.495 65.8263 187.356 65.5958C187.218 65.3653 187.125 65.0888 187.125 64.72H188.466C188.512 64.8122 188.559 64.9505 188.605 65.0888Z" fill="#AD1923"/>
<path d="M51.3242 33.5125C47.3477 26.6901 39.3948 13.0455 35.4183 6.17702C31.8118 3.36878e-05 26.4944 -1.52116 22.0555 1.56733C26.032 0.0461309 29.3149 1.61343 30.8408 4.65582C34.4011 11.5243 39.2098 24.5697 42.1228 33.6047C44.8509 42.0865 43.4175 47.7564 35.0947 48.494H42.5852C52.2027 48.494 56.133 41.7177 51.3242 33.5125Z" fill="#E23347"/>
<path d="M17.9873 6.1767C14.0109 12.999 6.05793 26.6898 2.08146 33.5122C-1.52511 39.6892 -0.184204 45.0364 4.76327 47.2951C1.43413 44.6215 1.20294 41.026 3.05246 38.2141C7.26012 31.7144 16.2303 21.0199 22.6574 14.0132C28.7146 7.42132 34.3556 5.80793 39.1644 12.5842L35.4191 6.13061C30.6103 -2.07464 22.7961 -2.07464 17.9873 6.1767Z" fill="#AD1923"/>
<path d="M10.7739 48.5401C18.7268 48.5401 34.6327 48.5861 42.5856 48.5861C49.7988 48.5861 53.7752 44.8062 53.3128 39.4129C52.6193 43.6077 49.6138 45.5898 46.1922 45.4055C38.4242 44.9906 24.6453 42.6396 15.3052 40.6114C6.51997 38.6753 2.31231 34.6649 5.8264 27.105L2.08112 33.5586C-2.72763 41.7638 1.2026 48.494 10.7739 48.5401Z" fill="#DB1915"/>
</g>
<defs>
<clipPath id="clip0">
<rect width="191.98" height="68.4539" fill="white"/>
</clipPath>
</defs>
</svg>
