<svg width="15" height="11" viewBox="0 0 15 11" fill="none" xmlns="http://www.w3.org/2000/svg">
<g clip-path="url(#clip0)">
<path d="M7.5 6.14961L13.9773 0.173228C13.8068 0.0866142 13.5511 0 13.2955 0H1.70454C1.36364 0 1.10795 0.0866142 0.852272 0.259843L7.5 6.14961Z" fill="white"/>
<path d="M15 1.73222C15 1.47238 14.9148 1.21253 14.8295 1.03931L10.483 5.02356L14.8295 9.96057C14.9148 9.78734 15 9.5275 15 9.26765V1.73222Z" fill="white"/>
<path d="M9.63068 5.80322L7.5 7.79535L5.36932 5.88984L0.9375 10.9135C1.19318 11.0001 1.44886 11.0867 1.70455 11.0867H13.2955C13.5511 11.0867 13.8068 11.0001 14.0625 10.9135L9.63068 5.80322Z" fill="white"/>
<path d="M0.0852273 1.12598C0 1.2992 0 1.55905 0 1.73228V9.26771C0 9.52755 0.0852273 9.70078 0.170455 9.96062L4.51705 5.02361L0.0852273 1.12598Z" fill="white"/>
</g>
<defs>
<clipPath id="clip0">
<rect width="15" height="11" fill="white"/>
</clipPath>
</defs>
</svg>
