<svg width="14" height="19" viewBox="0 0 14 19" fill="none" xmlns="http://www.w3.org/2000/svg">
<path d="M13.4015 15.8121C13.3959 15.672 13.1743 15.4016 12.7368 15.0016C12.6215 14.8822 12.4558 14.7174 12.2405 14.5067C12.0249 14.296 11.8299 14.1028 11.6556 13.9275C11.481 13.7521 11.3184 13.5842 11.1676 13.4238C11.1448 13.3939 11.0719 13.3049 10.9492 13.1563C10.8263 13.008 10.7196 12.8933 10.6283 12.812C10.5371 12.7311 10.4404 12.6751 10.3381 12.6445C10.192 12.6007 9.97937 12.6467 9.70006 12.7821C9.42068 12.9178 9.15421 13.0763 8.90076 13.2583C8.64731 13.4402 8.38817 13.6009 8.12355 13.7409C7.85861 13.8808 7.66034 13.931 7.52899 13.8917C7.46305 13.8719 7.38616 13.8295 7.29813 13.765C7.21021 13.7002 7.14434 13.6475 7.10021 13.6077C7.05669 13.5676 6.98397 13.4921 6.88196 13.3805C6.77966 13.2691 6.72258 13.2078 6.71012 13.1963C5.87005 12.3599 5.19568 11.4886 4.68682 10.5825C4.17832 9.67615 3.79105 8.65641 3.52557 7.52293C3.52251 7.50661 3.5005 7.42691 3.45978 7.284C3.41898 7.14096 3.39315 7.04103 3.38243 6.98383C3.37166 6.92681 3.36229 6.84511 3.35437 6.73891C3.34645 6.63271 3.35191 6.54786 3.37097 6.48425C3.40901 6.35726 3.5618 6.22601 3.82923 6.0907C4.0966 5.9555 4.37919 5.83621 4.67666 5.73314C4.97433 5.63013 5.2588 5.50373 5.53047 5.35441C5.8021 5.20497 5.95903 5.05976 6.00132 4.9186C6.0309 4.81984 6.0355 4.71149 6.01507 4.59386C5.99466 4.476 5.95361 4.32734 5.89207 4.14728C5.83046 3.96728 5.79296 3.85998 5.7795 3.82504C5.72286 3.61589 5.66631 3.3932 5.60955 3.15694C5.55278 2.92072 5.49222 2.65823 5.42735 2.36959C5.36257 2.08109 5.31018 1.85762 5.2699 1.69942C5.16234 1.12882 5.04917 0.802473 4.93027 0.720866C4.88545 0.684363 4.81189 0.650687 4.70972 0.620082C4.51236 0.560963 4.24433 0.519073 3.90539 0.494576C3.56637 0.469934 3.29406 0.469034 3.0881 0.492091C2.67844 0.530838 2.1623 0.845454 1.53961 1.43576C0.968303 1.98758 0.58534 2.58842 0.390823 3.23779C0.333776 3.42824 0.291054 3.61736 0.262646 3.80519C0.234294 3.99283 0.219166 4.20949 0.217313 4.45515C0.215366 4.7007 0.218112 4.88436 0.225454 5.00563C0.232813 5.12698 0.249027 5.34527 0.274036 5.66056C0.298914 5.97574 0.312958 6.16832 0.315844 6.23842C0.36427 7.00684 0.482443 7.71528 0.670232 8.3639C0.976465 9.44024 1.48402 10.6098 2.19254 11.8721C2.90112 13.1344 3.63942 14.1845 4.40752 15.0222C4.86853 15.5295 5.4202 16.0139 6.06201 16.4756C6.12148 16.5164 6.28137 16.6334 6.54171 16.8271C6.80224 17.0205 6.98334 17.1536 7.08486 17.2263C7.1864 17.2991 7.34473 17.4023 7.55923 17.5359C7.77423 17.6696 7.97089 17.7766 8.1497 17.8573C8.32879 17.9375 8.51682 18.0075 8.71395 18.0666C9.38594 18.2679 10.1195 18.2913 10.914 18.1371C11.7701 17.9628 12.3276 17.7221 12.5869 17.4148C12.7204 17.2627 12.8692 17.0438 13.0342 16.7585C13.1995 16.4734 13.3104 16.2356 13.3675 16.0449C13.3974 15.9459 13.4086 15.8686 13.4015 15.8121Z" fill="white"/>
</svg>
