<svg width="11" height="15" viewBox="0 0 11 15" fill="none" xmlns="http://www.w3.org/2000/svg">
<path d="M11 12.8734V12.7215C11 12.2658 10.5561 11.6582 10.1122 11.3544L8.63262 10.443C8.18874 10.1392 7.59689 10.2911 7.15301 10.443L6.4132 10.8987C4.34174 9.83544 3.01009 7.70886 2.86213 5.27848L3.60193 4.82278C4.04582 4.51899 4.34174 3.91139 4.34174 3.4557V1.63291C4.34174 1.17722 4.04582 0.56962 3.60193 0.265823L3.30601 0.113924C3.01009 -0.0379747 2.27028 -0.0379747 1.8264 0.113924L0.790668 0.873418C0.642707 1.02532 0.346784 1.48101 0.346784 1.48101C-0.393022 4.36709 0.0508616 7.55696 1.67844 9.98734C3.15805 12.5696 5.67339 14.3924 8.48466 15C8.48466 15 8.92854 15 9.22446 14.8481L10.4082 14.2405C10.7041 13.9367 11 13.3291 11 12.8734Z" fill="white"/>
</svg>
